<?xml version="1.0" encoding="UTF-8"?>
<mxfile host="app.diagrams.net">
  <diagram name="Agentic AI Observability Framework" id="agentic-observability">
    <mxGraphModel dx="1212" dy="682" grid="1" gridSize="10" guides="1" tooltips="1" connect="1" arrows="1"
      fold="1" page="1" pageScale="1" pageWidth="827" pageHeight="1169">
      <root>
        <mxCell id="0"/>
        <mxCell id="1" parent="0"/>

        <mxCell id="2" value="LangChain Chatbot" style="rounded=1;whiteSpace=wrap;html=1;fillColor=#f9f;strokeColor=#000000;" vertex="1" parent="1">
          <mxGeometry x="120" y="60" width="160" height="60" as="geometry"/>
        </mxCell>
        <mxCell id="3" value="Agent Router (FastAPI)" style="rounded=1;whiteSpace=wrap;html=1;fillColor=#bbf;strokeColor=#000000;" vertex="1" parent="1">
          <mxGeometry x="320" y="60" width="200" height="60" as="geometry"/>
        </mxCell>

        <!-- Agent Boxes -->
        <mxCell id="4" value="Anomaly Detection Agent" style="rounded=1;whiteSpace=wrap;html=1;fillColor=#e1f5fe;strokeColor=#000000;" vertex="1" parent="1">
          <mxGeometry x="580" y="30" width="180" height="50" as="geometry"/>
        </mxCell>
        <mxCell id="5" value="Suspect Ranking Agent" style="rounded=1;whiteSpace=wrap;html=1;fillColor=#e1f5fe;strokeColor=#000000;" vertex="1" parent="1">
          <mxGeometry x="580" y="90" width="180" height="50" as="geometry"/>
        </mxCell>
        <mxCell id="6" value="Forecast Agent" style="rounded=1;whiteSpace=wrap;html=1;fillColor=#e1f5fe;strokeColor=#000000;" vertex="1" parent="1">
          <mxGeometry x="580" y="150" width="180" height="50" as="geometry"/>
        </mxCell>
        <mxCell id="7" value="Automation Agent (OCP)" style="rounded=1;whiteSpace=wrap;html=1;fillColor=#e1f5fe;strokeColor=#000000;" vertex="1" parent="1">
          <mxGeometry x="580" y="210" width="180" height="50" as="geometry"/>
        </mxCell>
        <mxCell id="8" value="Log Analysis Agent" style="rounded=1;whiteSpace=wrap;html=1;fillColor=#e1f5fe;strokeColor=#000000;" vertex="1" parent="1">
          <mxGeometry x="580" y="270" width="180" height="50" as="geometry"/>
        </mxCell>
        <mxCell id="9" value="Alerting Agent" style="rounded=1;whiteSpace=wrap;html=1;fillColor=#e1f5fe;strokeColor=#000000;" vertex="1" parent="1">
          <mxGeometry x="580" y="330" width="180" height="50" as="geometry"/>
        </mxCell>
        <mxCell id="10" value="Validation Agent" style="rounded=1;whiteSpace=wrap;html=1;fillColor=#e1f5fe;strokeColor=#000000;" vertex="1" parent="1">
          <mxGeometry x="580" y="390" width="180" height="50" as="geometry"/>
        </mxCell>

        <!-- Connections -->
        <mxCell id="11" style="edgeStyle=orthogonalEdgeStyle;endArrow=block;strokeColor=#000000;" edge="1" parent="1" source="2" target="3">
          <mxGeometry relative="1" as="geometry"/>
        </mxCell>
        <mxCell id="12" style="edgeStyle=orthogonalEdgeStyle;endArrow=block;strokeColor=#000000;" edge="1" parent="1" source="3" target="4">
          <mxGeometry relative="1" as="geometry"/>
        </mxCell>
        <mxCell id="13" style="edgeStyle=orthogonalEdgeStyle;endArrow=block;strokeColor=#000000;" edge="1" parent="1" source="3" target="5">
          <mxGeometry relative="1" as="geometry"/>
        </mxCell>
        <mxCell id="14" style="edgeStyle=orthogonalEdgeStyle;endArrow=block;strokeColor=#000000;" edge="1" parent="1" source="3" target="6">
          <mxGeometry relative="1" as="geometry"/>
        </mxCell>
        <mxCell id="15" style="edgeStyle=orthogonalEdgeStyle;endArrow=block;strokeColor=#000000;" edge="1" parent="1" source="3" target="7">
          <mxGeometry relative="1" as="geometry"/>
        </mxCell>
        <mxCell id="16" style="edgeStyle=orthogonalEdgeStyle;endArrow=block;strokeColor=#000000;" edge="1" parent="1" source="3" target="8">
          <mxGeometry relative="1" as="geometry"/>
        </mxCell>
        <mxCell id="17" style="edgeStyle=orthogonalEdgeStyle;endArrow=block;strokeColor=#000000;" edge="1" parent="1" source="3" target="9">
          <mxGeometry relative="1" as="geometry"/>
        </mxCell>
        <mxCell id="18" style="edgeStyle=orthogonalEdgeStyle;endArrow=block;strokeColor=#000000;" edge="1" parent="1" source="3" target="10">
          <mxGeometry relative="1" as="geometry"/>
        </mxCell>
      </root>
    </mxGraphModel>
  </diagram>
</mxfile>
